<svg xmlns="http://www.w3.org/2000/svg" width="250" height="250" viewBox="0 0 250 250" fill="none">
<path d="M 241.66,125.01 C 237.81,112.98 227.41,111.95 216.76,110.36 C 215.12,95.83 210.99,83.09 202.29,70.33 C 202.99,68.37 201.92,66.65 200.74,65.11 C 183.14,41.46 157.52,27 124.66,27 C 92.62,27 66.09,40.77 48.28,63.38 C 46.21,65.85 46.26,67.71 47.12,69.36 C 37.81,81.15 33.21,93.78 30.99,109.86 C 20.19,110.58 11.71,115.92 9.04,124.94 C 3.28,145.66 5.62,157.95 10.01,169.16 C 16.14,184.65 29.12,186.31 36.04,185.81 C 42.48,185.68 44.94,184.31 44.72,182.11 C 44.26,177.79 41.01,165.31 41.01,149.12 C 41.01,138.22 43.19,127.74 46.21,117.7 C 47.51,113.33 44.66,112.05 39.16,110.28 C 41.01,96.88 45.88,84.85 52.61,73.79 C 55.17,75.56 58.07,74.88 59.61,72.71 C 75.86,54.31 97.89,45.16 124.61,45.16 C 149.71,45.16 171.91,55.91 189.29,73.47 C 191.95,76.59 193.91,76.67 197.6,74.42 C 204.93,86.26 208.28,98.24 208.98,110.39 C 203.84,111.81 201.28,113.19 202.92,118.61 C 206.51,128.99 207.92,137.93 207.92,148.73 C 207.92,162.11 204.8,174.71 202.84,182.71 C 201.92,186.23 204.31,186.91 210.79,186.99 H 213.91 C 225.87,186.61 235.39,180.64 239.49,169.05 C 244.83,155.26 245.08,138.01 241.66,125.01 Z" fill="#7F1D2B"/>
<path d="M 124.71,70.81 C 79.63,70.81 47.49,107.12 47.49,148.72 C 47.49,169.16 56.41,188.19 73.71,200.61 L 73.96,200.77 C 77.43,177.81 84.16,162.21 95.29,145.42 C 92.04,137.09 91.71,130.87 92.62,120.83 C 93.81,111.23 96.08,107.12 102.19,107.68 C 110.04,108.87 117.98,116.18 126.22,124.96 C 139.89,124.05 157.81,131.25 178.33,139.09 C 183.11,140.86 183.72,142.63 182.97,148.33 C 179.45,160.93 170.86,166.63 158.11,174.05 C 143.09,183.07 141.13,199.42 153.88,220.09 L 153.96,221.01 L 154.71,221.17 C 181.31,208.43 201.34,181.01 201.34,148.72 C 201.34,108.15 169.29,70.81 124.71,70.81 Z" fill="#7F1D2B"/>
</svg>